<?xml version="1.0" encoding="UTF-8"?>
<svg id="Ebene_1" xmlns="http://www.w3.org/2000/svg" version="1.1" viewBox="107.75 187.14 626.52 221.22">
  <!-- Generator: Adobe Illustrator 29.8.1, SVG Export Plug-In . SVG Version: 2.1.1 Build 2)  -->
  <defs>
    <style>
      .st0 {
        fill: #1e5348;
      }
    </style>
  </defs>
  <g>
    <path class="st0" d="M456.87,360.65c0,2.84-.54,5.24-1.61,7.21-1.07,1.97-2.52,3.46-4.35,4.47-1.83,1.01-3.91,1.51-6.24,1.51-3.47,0-6.19-1.07-8.16-3.22-1.97-2.14-2.96-5.14-2.96-8.98v-31.73h-10.36v33.01c0,4.35.77,8.01,2.29,10.97,1.53,2.96,3.65,5.19,6.36,6.69,2.71,1.5,5.85,2.24,9.41,2.24,4.07,0,7.57-1.08,10.52-3.24,2.21-1.62,4.03-3.95,5.47-7l.04,9.53h9.93v-52.21h-10.35v30.74Z"/>
    <path class="st0" d="M402.63,332.4c-3.29-2.16-7.08-3.24-11.37-3.24-3.03,0-5.54.49-7.54,1.49-2,.99-3.61,2.18-4.82,3.57-1.21,1.39-2.18,2.71-2.91,3.97h-.71v-8.28h-10.07v71.97h10.36v-27.85h.47c.72,1.29,1.71,2.64,2.96,4.04s2.86,2.6,4.85,3.59c1.99.99,4.46,1.49,7.42,1.49,4.32,0,8.13-1.09,11.42-3.29,3.29-2.19,5.88-5.3,7.76-9.34,1.88-4.03,2.81-8.84,2.81-14.42s-.95-10.43-2.84-14.45c-1.89-4.02-4.48-7.11-7.78-9.27ZM401.17,365.5c-1.06,2.76-2.61,4.93-4.66,6.5-2.05,1.58-4.54,2.36-7.47,2.36s-5.38-.77-7.45-2.32c-2.06-1.55-3.63-3.69-4.7-6.43-1.07-2.74-1.61-5.93-1.61-9.55s.53-6.83,1.58-9.53c1.06-2.7,2.61-4.8,4.66-6.31,2.05-1.51,4.55-2.27,7.52-2.27s5.46.77,7.49,2.32c2.03,1.54,3.58,3.67,4.64,6.38,1.06,2.71,1.58,5.85,1.58,9.41s-.53,6.68-1.58,9.43Z"/>
    <path class="st0" d="M340.97,352.85l-8.46-1.89c-2.74-.63-4.76-1.48-6.05-2.55-1.29-1.07-1.94-2.47-1.94-4.21,0-2.02.94-3.67,2.81-4.96,1.88-1.29,4.25-1.94,7.12-1.94,3.09,0,5.47.72,7.14,2.18,1.67,1.45,2.76,3.17,3.26,5.15l9.41-1.61c-.6-2.77-1.74-5.2-3.43-7.28-1.69-2.08-3.91-3.7-6.67-4.85-2.76-1.15-6.05-1.72-9.86-1.72s-7.42.65-10.45,1.94c-3.03,1.29-5.4,3.1-7.11,5.44-1.72,2.33-2.58,5.06-2.58,8.18,0,3.78,1.2,6.88,3.59,9.29,2.4,2.41,6.02,4.17,10.88,5.27l8.8,1.94c2.43.54,4.26,1.35,5.51,2.43,1.24,1.09,1.87,2.48,1.87,4.19,0,1.95-.98,3.62-2.93,4.99-1.95,1.37-4.59,2.06-7.9,2.06-3.12,0-5.65-.67-7.59-2.01-1.94-1.34-3.22-3.38-3.85-6.13l-9.83,1.61c.57,3.21,1.8,5.93,3.69,8.16,1.89,2.22,4.33,3.9,7.33,5.04,2.99,1.13,6.41,1.7,10.26,1.7,4.19,0,7.9-.69,11.12-2.06,3.21-1.37,5.74-3.28,7.56-5.72,1.83-2.44,2.74-5.26,2.74-8.44,0-3.69-1.18-6.7-3.52-9.03-2.35-2.33-5.98-4.05-10.9-5.15Z"/>
    <path class="st0" d="M189.3,331c-2.54-1.35-5.35-2.03-8.44-2.03-2.78,0-5.35.52-7.73,1.56-2.38,1.04-4.41,2.54-6.08,4.49-1.17,1.37-2.08,2.94-2.77,4.69-.9-2.94-2.32-5.35-4.27-7.22-2.46-2.35-5.6-3.52-9.41-3.52-2.3,0-4.51.47-6.62,1.42-2.11.94-3.96,2.35-5.53,4.23-1.13,1.35-2.05,2.97-2.78,4.85l-.15-9.55h-9.89v52.21h10.36v-32.25c0-2.58.5-4.75,1.49-6.5.99-1.75,2.32-3.07,3.97-3.97s3.44-1.35,5.37-1.35c2.84,0,5.16.85,6.97,2.56,1.81,1.7,2.72,3.97,2.72,6.81v34.71h10.17v-33.29c0-2.11.42-3.98,1.28-5.6.85-1.62,2.07-2.89,3.67-3.81,1.59-.91,3.47-1.37,5.65-1.37,2.71,0,5.05.79,7.02,2.36,1.97,1.58,2.95,4.15,2.95,7.71v34h10.31v-35.04c0-4-.74-7.34-2.22-10.03-1.48-2.68-3.49-4.7-6.03-6.05Z"/>
    <path class="st0" d="M248.06,335.52c-2.19-2.16-4.7-3.76-7.52-4.8-2.82-1.04-5.81-1.56-8.96-1.56-4.82,0-9.05,1.15-12.67,3.45-3.63,2.3-6.43,5.49-8.42,9.57-1.98,4.08-2.98,8.79-2.98,14.12s1,10.1,3,14.14c2,4.04,4.86,7.17,8.58,9.41,3.72,2.24,8.17,3.36,13.34,3.36,3.75,0,7.13-.6,10.14-1.8,3.01-1.2,5.52-2.88,7.54-5.04,2.02-2.16,3.42-4.66,4.21-7.5l-9.74-1.8c-.57,1.64-1.42,3.03-2.55,4.16-1.14,1.14-2.51,1.99-4.11,2.58-1.61.58-3.41.88-5.39.88-2.96,0-5.56-.66-7.78-1.96-2.22-1.31-3.94-3.21-5.15-5.7-1.09-2.24-1.69-4.89-1.8-7.95h37.33v-3.5c0-4.57-.63-8.52-1.89-11.85-1.26-3.32-2.99-6.07-5.18-8.23ZM219.43,345.29c1.1-2.3,2.69-4.15,4.75-5.53,2.06-1.39,4.55-2.08,7.45-2.08s5.35.68,7.35,2.03c2,1.36,3.52,3.26,4.54,5.7.75,1.78,1.21,3.76,1.41,5.93h-27.08c.18-2.19.69-4.21,1.57-6.05Z"/>
    <path class="st0" d="M290.81,352.85l-8.46-1.89c-2.74-.63-4.76-1.48-6.05-2.55-1.29-1.07-1.94-2.47-1.94-4.21,0-2.02.94-3.67,2.81-4.96s4.25-1.94,7.12-1.94c3.09,0,5.47.72,7.14,2.18,1.67,1.45,2.76,3.17,3.26,5.15l9.41-1.61c-.6-2.77-1.74-5.2-3.43-7.28-1.69-2.08-3.91-3.7-6.67-4.85s-6.05-1.72-9.86-1.72-7.42.65-10.45,1.94c-3.03,1.29-5.4,3.1-7.12,5.44-1.72,2.33-2.58,5.06-2.58,8.18,0,3.78,1.2,6.88,3.59,9.29,2.4,2.41,6.02,4.17,10.88,5.27l8.8,1.94c2.43.54,4.26,1.35,5.51,2.43,1.24,1.09,1.87,2.48,1.87,4.19,0,1.95-.98,3.62-2.93,4.99-1.95,1.37-4.59,2.06-7.9,2.06-3.12,0-5.65-.67-7.59-2.01-1.94-1.34-3.22-3.38-3.85-6.13l-9.83,1.61c.57,3.21,1.8,5.93,3.69,8.16,1.89,2.22,4.33,3.9,7.33,5.04,2.99,1.13,6.42,1.7,10.26,1.7,4.19,0,7.9-.69,11.11-2.06,3.21-1.37,5.74-3.28,7.57-5.72,1.83-2.44,2.74-5.26,2.74-8.44,0-3.69-1.18-6.7-3.52-9.03-2.35-2.33-5.98-4.05-10.9-5.15Z"/>
    <path class="st0" d="M652.11,309.39c-1.8,0-3.33.59-4.59,1.77-1.26,1.18-1.89,2.64-1.89,4.38s.63,3.16,1.89,4.38c1.26,1.21,2.79,1.82,4.59,1.82s3.32-.61,4.59-1.82c1.26-1.21,1.89-2.67,1.89-4.38s-.63-3.19-1.89-4.38c-1.26-1.18-2.79-1.77-4.59-1.77Z"/>
    <path class="st0" d="M713.21,342.02c-2.03-4.07-4.89-7.23-8.56-9.48-3.67-2.25-7.98-3.38-12.93-3.38s-9.21,1.13-12.89,3.38c-3.67,2.26-6.53,5.41-8.56,9.48-2.03,4.07-3.05,8.81-3.05,14.23s1.02,10.07,3.05,14.12c2.03,4.05,4.89,7.2,8.56,9.46,3.67,2.26,7.97,3.38,12.89,3.38s9.26-1.12,12.93-3.38c3.67-2.25,6.53-5.41,8.56-9.46,2.03-4.05,3.05-8.76,3.05-14.12s-1.02-10.17-3.05-14.23ZM704.25,365.46c-1.04,2.76-2.61,4.95-4.7,6.57-2.1,1.63-4.71,2.44-7.83,2.44s-5.71-.81-7.78-2.44c-2.06-1.62-3.62-3.81-4.66-6.57-1.04-2.76-1.56-5.82-1.56-9.2s.52-6.53,1.56-9.29c1.04-2.76,2.59-4.96,4.66-6.6,2.07-1.64,4.66-2.46,7.78-2.46s5.73.82,7.83,2.46c2.09,1.64,3.66,3.84,4.7,6.6,1.04,2.76,1.56,5.85,1.56,9.29s-.52,6.44-1.56,9.2Z"/>
    <rect class="st0" x="646.91" y="329.92" width="10.36" height="52.21"/>
    <path class="st0" d="M627.35,369.07c-1.92,0-3.56.67-4.92,2.01-1.35,1.34-2.03,2.97-2.03,4.89s.68,3.56,2.03,4.9c1.35,1.34,2.99,2.01,4.92,2.01s3.55-.67,4.9-2.01c1.34-1.34,2.01-2.97,2.01-4.9s-.67-3.55-2.01-4.89c-1.34-1.34-2.97-2.01-4.9-2.01Z"/>
    <path class="st0" d="M514.99,331.43c-2.7-1.51-5.82-2.27-9.39-2.27-4.16,0-7.71,1.09-10.64,3.29-2.19,1.64-3.99,3.96-5.4,6.97l-.03-9.5h-9.93v52.21h10.36v-30.74c0-2.87.53-5.28,1.58-7.23,1.06-1.95,2.51-3.44,4.37-4.45,1.86-1.01,3.96-1.51,6.29-1.51,3.44,0,6.14,1.06,8.11,3.19,1.97,2.13,2.96,5.12,2.96,8.96v31.78h10.31v-33.05c0-4.35-.76-8-2.27-10.95-1.51-2.95-3.62-5.18-6.31-6.69Z"/>
    <polygon class="st0" points="580.54 329.92 568.05 329.92 547.1 352 546.35 352 546.35 311.66 535.99 311.66 535.99 382.12 546.35 382.12 546.35 363.73 551.41 358.69 569.23 382.12 581.96 382.12 559.25 352.43 580.54 329.92"/>
    <path class="st0" d="M608.74,373.83c-.88.11-1.62.17-2.22.17-2.05,0-3.5-.47-4.35-1.42-.85-.95-1.28-2.44-1.28-4.49v-29.75h10.45v-8.42h-10.45v-12.81h-10.35v12.81h-7.95v8.42h7.95v30.69c0,4.38,1.28,7.75,3.85,10.1,2.57,2.35,6.23,3.52,11,3.52,1.2,0,2.41-.06,3.64-.19,1.23-.13,2.38-.33,3.45-.61l-1.47-8.32c-.63.09-1.39.2-2.27.31Z"/>
  </g>
  <g>
    <polygon class="st0" points="467.52 193.39 467.27 193.64 467.02 193.39 439.21 221.2 411.39 193.39 401.85 202.93 401.89 202.98 329.77 275.1 348.85 275.11 411.44 212.52 429.66 230.75 385.31 275.1 404.66 275.13 467.28 212.24 492.68 237.64 474.24 256.09 456.58 238.43 447.03 247.98 474.23 275.18 475.31 274.1 511.81 237.6 502.26 228.06 502.23 228.09 467.52 193.39"/>
    <path class="st0" d="M510.11,273.23c1.34-1.34,2.01-2.97,2.01-4.9s-.67-3.55-2.01-4.89c-1.34-1.34-2.97-2.01-4.9-2.01s-3.56.67-4.92,2.01c-1.36,1.34-2.04,2.97-2.04,4.89s.68,3.56,2.04,4.9c1.35,1.34,2.99,2.01,4.92,2.01s3.56-.67,4.9-2.01"/>
  </g>
</svg>