<?xml version="1.0" encoding="UTF-8"?>
<svg id="Ebene_1" xmlns="http://www.w3.org/2000/svg" version="1.1" viewBox="-63.23 -43.26 779.22 545.16">
  <!-- Generator: Adobe Illustrator 29.8.1, SVG Export Plug-In . SVG Version: 2.1.1 Build 2)  -->
  <defs>
    <style>
      .st0 {
        fill: #1e5348;
      }
    </style>
  </defs>
  <g>
    <path class="st0" d="M342.24,284.54c-1.67-.89-3.52-1.34-5.56-1.34-1.83,0-3.52.34-5.09,1.03s-2.9,1.67-4,2.96c-.77.9-1.38,1.94-1.83,3.1-.59-1.94-1.52-3.54-2.81-4.77-1.62-1.54-3.68-2.32-6.2-2.32-1.51,0-2.97.31-4.36.94-1.39.62-2.6,1.55-3.64,2.79-.75.89-1.35,1.95-1.83,3.19l-.1-6.29h-6.51v34.37h6.82v-21.23c0-1.7.33-3.13.98-4.28.65-1.15,1.52-2.02,2.61-2.61,1.09-.59,2.27-.89,3.53-.89,1.87,0,3.4.56,4.59,1.68,1.19,1.12,1.79,2.61,1.79,4.48v22.85h6.69v-21.92c0-1.39.28-2.62.84-3.69.56-1.07,1.36-1.9,2.41-2.51,1.05-.6,2.29-.9,3.72-.9,1.78,0,3.33.52,4.62,1.56,1.3,1.04,1.94,2.73,1.94,5.08v22.38h6.79v-23.07c0-2.63-.49-4.83-1.46-6.6-.98-1.76-2.3-3.09-3.97-3.99Z"/>
    <path class="st0" d="M482.67,285.46c-2.17-1.42-4.66-2.13-7.49-2.13-1.99,0-3.65.33-4.96.98-1.32.65-2.38,1.44-3.18,2.35-.8.91-1.44,1.79-1.91,2.61h-.47v-5.45h-6.63v47.38h6.82v-18.34h.31c.48.85,1.13,1.74,1.95,2.66s1.88,1.71,3.19,2.37c1.31.65,2.94.98,4.89.98,2.84,0,5.35-.72,7.52-2.16,2.17-1.44,3.87-3.49,5.11-6.15,1.23-2.66,1.85-5.82,1.85-9.49s-.62-6.87-1.87-9.51c-1.25-2.65-2.95-4.68-5.12-6.1ZM481.71,307.25c-.7,1.82-1.72,3.24-3.07,4.28-1.35,1.04-2.99,1.56-4.92,1.56s-3.54-.51-4.9-1.52c-1.36-1.02-2.39-2.43-3.1-4.23-.71-1.81-1.06-3.9-1.06-6.29s.35-4.5,1.04-6.27c.7-1.77,1.72-3.16,3.07-4.16,1.35-1,3-1.49,4.95-1.49s3.6.51,4.93,1.53c1.34,1.02,2.36,2.42,3.05,4.2.7,1.79,1.04,3.85,1.04,6.2s-.35,4.39-1.04,6.21Z"/>
    <path class="st0" d="M518.38,304.06c0,1.87-.35,3.45-1.06,4.75-.71,1.3-1.66,2.28-2.86,2.94-1.2.66-2.57,1-4.11,1-2.28,0-4.07-.71-5.37-2.12-1.3-1.41-1.95-3.38-1.95-5.92v-20.89h-6.82v21.73c0,2.86.5,5.27,1.51,7.22,1.01,1.95,2.4,3.42,4.19,4.41,1.78.99,3.85,1.48,6.2,1.48,2.68,0,4.98-.71,6.93-2.13,1.45-1.07,2.66-2.6,3.6-4.61l.02,6.27h6.54v-34.37h-6.82v20.23Z"/>
    <path class="st0" d="M380.92,287.51c-1.44-1.42-3.09-2.48-4.95-3.16-1.86-.69-3.82-1.03-5.9-1.03-3.18,0-5.96.76-8.34,2.27-2.39,1.51-4.23,3.62-5.54,6.3-1.31,2.69-1.96,5.79-1.96,9.29s.66,6.65,1.98,9.31c1.32,2.66,3.2,4.72,5.65,6.2,2.45,1.47,5.38,2.21,8.78,2.21,2.47,0,4.7-.39,6.68-1.18,1.98-.79,3.64-1.89,4.96-3.32,1.33-1.42,2.25-3.07,2.77-4.93l-6.41-1.18c-.37,1.08-.94,1.99-1.68,2.74-.75.75-1.65,1.31-2.71,1.7s-2.24.58-3.55.58c-1.95,0-3.66-.43-5.12-1.29-1.46-.86-2.59-2.11-3.39-3.75-.72-1.47-1.09-3.23-1.17-5.23h24.56v-2.3c0-3.01-.41-5.61-1.24-7.8-.83-2.19-1.97-4-3.41-5.42ZM362.07,293.94c.73-1.51,1.77-2.73,3.13-3.64,1.36-.91,2.99-1.37,4.9-1.37s3.52.45,4.84,1.34c1.32.89,2.31,2.14,2.99,3.75.49,1.17.8,2.48.93,3.91h-17.83c.12-1.44.45-2.77,1.04-3.98Z"/>
    <path class="st0" d="M409.07,298.92l-5.57-1.25c-1.81-.41-3.13-.98-3.99-1.68-.85-.71-1.28-1.63-1.28-2.77,0-1.33.62-2.42,1.85-3.27,1.23-.85,2.8-1.28,4.69-1.28,2.03,0,3.6.48,4.7,1.43,1.1.95,1.82,2.09,2.15,3.39l6.2-1.06c-.39-1.83-1.15-3.42-2.26-4.79-1.11-1.37-2.57-2.43-4.39-3.19s-3.98-1.14-6.49-1.14-4.89.42-6.88,1.28c-1.99.85-3.55,2.04-4.68,3.58-1.13,1.54-1.7,3.33-1.7,5.39,0,2.49.79,4.53,2.37,6.12,1.58,1.59,3.96,2.74,7.16,3.47l5.79,1.28c1.6.35,2.81.89,3.63,1.6.82.72,1.23,1.63,1.23,2.76,0,1.29-.64,2.38-1.93,3.28-1.29.9-3.02,1.36-5.2,1.36-2.05,0-3.72-.44-5-1.32-1.28-.88-2.12-2.23-2.54-4.03l-6.47,1.06c.37,2.12,1.18,3.91,2.43,5.37,1.24,1.46,2.85,2.57,4.82,3.32,1.97.75,4.22,1.12,6.75,1.12,2.76,0,5.2-.45,7.32-1.35,2.12-.9,3.78-2.16,4.98-3.77,1.2-1.61,1.81-3.46,1.81-5.56,0-2.43-.77-4.41-2.32-5.95-1.55-1.53-3.94-2.67-7.18-3.39Z"/>
    <path class="st0" d="M442.08,298.92l-5.57-1.25c-1.81-.41-3.14-.98-3.99-1.68-.85-.71-1.28-1.63-1.28-2.77,0-1.33.62-2.42,1.85-3.27,1.23-.85,2.8-1.28,4.69-1.28,2.03,0,3.6.48,4.7,1.43,1.1.95,1.82,2.09,2.15,3.39l6.2-1.06c-.39-1.83-1.15-3.42-2.26-4.79-1.11-1.37-2.57-2.43-4.39-3.19s-3.98-1.14-6.49-1.14-4.89.42-6.88,1.28c-1.99.85-3.55,2.04-4.68,3.58-1.13,1.54-1.7,3.33-1.7,5.39,0,2.49.79,4.53,2.37,6.12,1.58,1.59,3.96,2.74,7.16,3.47l5.79,1.28c1.6.35,2.81.89,3.63,1.6.82.72,1.23,1.63,1.23,2.76,0,1.29-.64,2.38-1.93,3.28-1.29.9-3.02,1.36-5.2,1.36-2.05,0-3.72-.44-5-1.32-1.28-.88-2.12-2.23-2.54-4.03l-6.47,1.06c.37,2.12,1.18,3.91,2.43,5.37,1.24,1.46,2.85,2.57,4.82,3.32,1.97.75,4.22,1.12,6.75,1.12,2.76,0,5.2-.45,7.32-1.35,2.12-.9,3.78-2.16,4.98-3.77,1.2-1.61,1.81-3.46,1.81-5.56,0-2.43-.77-4.41-2.32-5.95-1.55-1.53-3.94-2.67-7.18-3.39Z"/>
    <path class="st0" d="M646.91,270.31c-1.18,0-2.19.39-3.02,1.17-.83.78-1.25,1.74-1.25,2.88s.41,2.08,1.25,2.88c.83.8,1.84,1.2,3.02,1.2s2.19-.4,3.02-1.2c.83-.8,1.24-1.76,1.24-2.88s-.41-2.1-1.24-2.88c-.83-.78-1.84-1.17-3.02-1.17Z"/>
    <rect class="st0" x="643.48" y="283.82" width="6.82" height="34.37"/>
    <path class="st0" d="M687.13,291.79c-1.34-2.68-3.22-4.76-5.63-6.24-2.42-1.48-5.26-2.23-8.51-2.23s-6.07.74-8.48,2.23c-2.42,1.48-4.3,3.56-5.63,6.24-1.34,2.68-2.01,5.8-2.01,9.37s.67,6.63,2.01,9.29,3.22,4.74,5.63,6.23c2.42,1.48,5.25,2.23,8.48,2.23s6.1-.74,8.51-2.23c2.42-1.48,4.3-3.56,5.63-6.23s2.01-5.77,2.01-9.29-.67-6.69-2.01-9.37ZM681.23,307.22c-.69,1.82-1.72,3.26-3.1,4.33-1.38,1.07-3.1,1.6-5.15,1.6s-3.76-.53-5.12-1.6c-1.36-1.07-2.38-2.51-3.07-4.33-.68-1.82-1.03-3.83-1.03-6.06s.34-4.3,1.03-6.12c.69-1.82,1.71-3.26,3.07-4.34,1.36-1.08,3.07-1.62,5.12-1.62s3.77.54,5.15,1.62c1.38,1.08,2.41,2.53,3.1,4.34.69,1.82,1.03,3.85,1.03,6.12s-.34,4.24-1.03,6.06Z"/>
    <polygon class="st0" points="599.79 283.82 591.57 283.82 577.78 298.36 577.28 298.36 577.28 271.81 570.46 271.81 570.46 318.19 577.28 318.19 577.28 306.08 580.62 302.76 592.35 318.19 600.72 318.19 585.78 298.64 599.79 283.82"/>
    <path class="st0" d="M556.64,284.82c-1.78-1-3.83-1.49-6.18-1.49-2.74,0-5.07.72-7,2.16-1.44,1.08-2.63,2.61-3.56,4.59l-.02-6.26h-6.54v34.37h6.82v-20.23c0-1.89.35-3.48,1.04-4.76s1.65-2.26,2.88-2.93c1.22-.66,2.6-1,4.14-1,2.26,0,4.04.7,5.34,2.1,1.3,1.4,1.94,3.37,1.94,5.9v20.92h6.79v-21.76c0-2.86-.5-5.27-1.49-7.21-1-1.94-2.38-3.41-4.16-4.4Z"/>
    <path class="st0" d="M618.36,312.73c-.58.07-1.07.11-1.46.11-1.35,0-2.3-.31-2.86-.93-.56-.62-.84-1.61-.84-2.96v-19.58h6.88v-5.54h-6.88v-8.44h-6.82v8.44h-5.23v5.54h5.23v20.2c0,2.89.84,5.1,2.54,6.65,1.69,1.55,4.1,2.32,7.24,2.32.79,0,1.59-.04,2.4-.12.81-.08,1.57-.22,2.27-.4l-.97-5.48c-.41.06-.91.13-1.49.2Z"/>
    <path class="st0" d="M630.61,309.6c-1.27,0-2.35.44-3.24,1.32-.89.88-1.34,1.96-1.34,3.22s.45,2.34,1.34,3.22c.89.88,1.97,1.32,3.24,1.32s2.34-.44,3.22-1.32c.88-.88,1.32-1.96,1.32-3.22s-.44-2.34-1.32-3.22-1.96-1.32-3.22-1.32Z"/>
  </g>
  <polygon class="st0" points="243.43 264.07 243.27 264.24 243.11 264.07 224.8 282.38 206.49 264.07 200.2 270.36 200.23 270.39 152.75 317.87 165.31 317.87 206.52 276.67 218.51 288.67 189.31 317.87 202.05 317.88 243.28 276.49 260 293.2 247.85 305.35 236.23 293.73 229.95 300.01 247.85 317.92 248.56 317.21 248.56 317.21 272.59 293.18 266.3 286.9 266.28 286.92 243.43 264.07"/>
  <path class="st0" d="M271.47,316.64c.88-.88,1.32-1.96,1.32-3.22s-.44-2.34-1.32-3.22c-.88-.88-1.96-1.32-3.22-1.32s-2.34.44-3.24,1.32c-.89.88-1.34,1.96-1.34,3.22s.45,2.34,1.34,3.22c.89.88,1.97,1.32,3.24,1.32s2.34-.44,3.22-1.32"/>
</svg>