<?xml version="1.0" encoding="UTF-8"?>
<svg id="Ebene_1" xmlns="http://www.w3.org/2000/svg" version="1.1" viewBox="-31.81 -24.06 636.80 428.85">
  <!-- Generator: Adobe Illustrator 29.8.1, SVG Export Plug-In . SVG Version: 2.1.1 Build 2)  -->
  <defs>
    <style>
      .st0 {
        fill: #1e534a;
      }
    </style>
  </defs>
  <polygon class="st0" points="507.4 252.2 506.98 252.61 506.56 252.2 460.08 298.68 413.59 252.2 397.63 268.15 397.71 268.23 277.17 388.77 309.05 388.79 413.67 284.18 444.12 314.64 369.99 388.77 402.33 388.81 507 283.71 549.45 326.16 518.62 356.99 489.11 327.48 473.16 343.43 518.62 388.9 520.42 387.09 520.42 387.1 581.41 326.1 565.46 310.15 565.4 310.2 507.4 252.2"/>
  <path class="st0" d="M578.58,385.65c2.24-2.24,3.36-4.97,3.36-8.18s-1.12-5.94-3.36-8.18c-2.24-2.24-4.97-3.36-8.18-3.36s-5.95,1.12-8.22,3.36c-2.27,2.24-3.4,4.97-3.4,8.18s1.13,5.94,3.4,8.18c2.26,2.24,5,3.36,8.22,3.36s5.94-1.12,8.18-3.36"/>
</svg>